#tb 0: 1/25
0,          0,          0,        1,   299520, 0xd59d7aa3
0,          1,          1,        1,   299520, 0xb11a2450
0,          2,          2,        1,   299520, 0xd36c3318
0,          3,          3,        1,   299520, 0x1a22da41
0,          4,          4,        1,   299520, 0xc2c5c32f
0,          5,          5,        1,   299520, 0x878f0330
0,          6,          6,        1,   299520, 0x8e48d8b4
0,          7,          7,        1,   299520, 0x8823b7f7
0,          8,          8,        1,   299520, 0xa8220643
0,          9,          9,        1,   299520, 0x26232cc6
0,         10,         10,        1,   299520, 0x46924122
0,         11,         11,        1,   299520, 0x9b7b20ad
0,         12,         12,        1,   299520, 0x807fe822
0,         13,         13,        1,   299520, 0x22d87904
0,         14,         14,        1,   299520, 0xdc192d01
0,         15,         15,        1,   299520, 0x3160d391
0,         16,         16,        1,   299520, 0x4f9f3708
0,         17,         17,        1,   299520, 0xb2a0f8ac
0,         18,         18,        1,   299520, 0x0f2ce6d4
0,         19,         19,        1,   299520, 0x835c9843
0,         20,         20,        1,   299520, 0x4cf22619
0,         21,         21,        1,   299520, 0x008a7876
0,         22,         22,        1,   299520, 0x87be177d
0,         23,         23,        1,   299520, 0x68c371f8
0,         24,         24,        1,   299520, 0x2c5d0acb
0,         25,         25,        1,   299520, 0x0b2fe5bc
0,         26,         26,        1,   299520, 0x97853221
0,         27,         27,        1,   299520, 0xeecb2b68
0,         28,         28,        1,   299520, 0x1b7fae21
0,         29,         29,        1,   299520, 0xef7b580d
0,         30,         30,        1,   299520, 0x6cf1ed26
0,         31,         31,        1,   299520, 0x5552405b
0,         32,         32,        1,   299520, 0xf5dc10db
0,         33,         33,        1,   299520, 0xf49d96fb
0,         34,         34,        1,   299520, 0x3d98667d
0,         35,         35,        1,   299520, 0x3b2c163f
0,         36,         36,        1,   299520, 0x49028958
0,         37,         37,        1,   299520, 0x63608f30
0,         38,         38,        1,   299520, 0x253f12bf
0,         39,         39,        1,   299520, 0x9e8036c3
0,         40,         40,        1,   299520, 0x5c3706ec
0,         41,         41,        1,   299520, 0x419ca1c9
0,         42,         42,        1,   299520, 0xa5d3f49f
0,         43,         43,        1,   299520, 0x8722fa81
0,         44,         44,        1,   299520, 0x41c8d4bf
